<mxfile host="app.diagrams.net" agent="Mozilla/5.0 (X11; Linux x86_64) AppleWebKit/537.36 (KHTML, like Gecko) Chrome/127.0.0.0 Safari/537.36" version="24.7.4">
  <diagram name="Page-1" id="e7sQo26B1uetAWzda61K">
    <mxGraphModel grid="1" page="1" gridSize="10" guides="1" tooltips="1" connect="1" arrows="1" fold="1" pageScale="1" pageWidth="850" pageHeight="1100" math="0" shadow="0">
      <root>
        <mxCell id="0" />
        <mxCell id="1" parent="0" />
        <mxCell id="Isc7oL6KGUsIhXfSyb_4-7" style="edgeStyle=orthogonalEdgeStyle;rounded=0;orthogonalLoop=1;jettySize=auto;html=1;exitX=0.5;exitY=1;exitDx=0;exitDy=0;entryX=0;entryY=0;entryDx=0;entryDy=0;strokeWidth=3;" edge="1" parent="1" source="Isc7oL6KGUsIhXfSyb_4-1" target="Isc7oL6KGUsIhXfSyb_4-3">
          <mxGeometry relative="1" as="geometry" />
        </mxCell>
        <mxCell id="Isc7oL6KGUsIhXfSyb_4-1" value="&lt;b&gt;Faculty&lt;/b&gt;" style="rounded=1;whiteSpace=wrap;html=1;strokeWidth=3;" vertex="1" parent="1">
          <mxGeometry x="100" y="70" width="110" height="50" as="geometry" />
        </mxCell>
        <mxCell id="Isc7oL6KGUsIhXfSyb_4-3" value="&lt;b&gt;Login&lt;/b&gt;" style="ellipse;whiteSpace=wrap;html=1;strokeWidth=3;" vertex="1" parent="1">
          <mxGeometry x="200" y="200" width="110" height="70" as="geometry" />
        </mxCell>
        <mxCell id="Isc7oL6KGUsIhXfSyb_4-5" value="&lt;b&gt;Authentication&lt;/b&gt;" style="ellipse;whiteSpace=wrap;html=1;strokeWidth=3;" vertex="1" parent="1">
          <mxGeometry x="200" y="310" width="110" height="70" as="geometry" />
        </mxCell>
        <mxCell id="Isc7oL6KGUsIhXfSyb_4-8" style="edgeStyle=orthogonalEdgeStyle;rounded=0;orthogonalLoop=1;jettySize=auto;html=1;exitX=0.5;exitY=1;exitDx=0;exitDy=0;entryX=1;entryY=0;entryDx=0;entryDy=0;strokeWidth=3;" edge="1" parent="1" source="Isc7oL6KGUsIhXfSyb_4-6" target="Isc7oL6KGUsIhXfSyb_4-3">
          <mxGeometry relative="1" as="geometry" />
        </mxCell>
        <mxCell id="Isc7oL6KGUsIhXfSyb_4-6" value="&lt;b&gt;Admin&lt;/b&gt;" style="rounded=1;whiteSpace=wrap;html=1;strokeWidth=3;" vertex="1" parent="1">
          <mxGeometry x="290" y="70" width="110" height="50" as="geometry" />
        </mxCell>
        <mxCell id="Isc7oL6KGUsIhXfSyb_4-11" value="" style="endArrow=classic;html=1;rounded=0;entryX=0.267;entryY=0.066;entryDx=0;entryDy=0;entryPerimeter=0;exitX=0.25;exitY=0.914;exitDx=0;exitDy=0;exitPerimeter=0;strokeWidth=3;" edge="1" parent="1" source="Isc7oL6KGUsIhXfSyb_4-3" target="Isc7oL6KGUsIhXfSyb_4-5">
          <mxGeometry width="50" height="50" relative="1" as="geometry">
            <mxPoint x="230" y="279.36" as="sourcePoint" />
            <mxPoint x="229.99999999999991" y="310" as="targetPoint" />
          </mxGeometry>
        </mxCell>
        <mxCell id="Isc7oL6KGUsIhXfSyb_4-12" value="" style="endArrow=classic;html=1;rounded=0;exitX=0.716;exitY=0.048;exitDx=0;exitDy=0;exitPerimeter=0;entryX=0.727;entryY=0.977;entryDx=0;entryDy=0;entryPerimeter=0;strokeWidth=3;" edge="1" parent="1" source="Isc7oL6KGUsIhXfSyb_4-5" target="Isc7oL6KGUsIhXfSyb_4-3">
          <mxGeometry width="50" height="50" relative="1" as="geometry">
            <mxPoint x="310" y="280" as="sourcePoint" />
            <mxPoint x="360" y="230" as="targetPoint" />
          </mxGeometry>
        </mxCell>
        <mxCell id="Isc7oL6KGUsIhXfSyb_4-15" value="" style="group" connectable="0" vertex="1" parent="1">
          <mxGeometry x="550" y="325" width="120" height="40" as="geometry" />
        </mxCell>
        <mxCell id="Isc7oL6KGUsIhXfSyb_4-13" value="" style="endArrow=none;html=1;rounded=0;strokeWidth=3;" edge="1" parent="Isc7oL6KGUsIhXfSyb_4-15">
          <mxGeometry width="50" height="50" relative="1" as="geometry">
            <mxPoint as="sourcePoint" />
            <mxPoint x="120" as="targetPoint" />
          </mxGeometry>
        </mxCell>
        <mxCell id="Isc7oL6KGUsIhXfSyb_4-14" value="" style="endArrow=none;html=1;rounded=0;strokeWidth=3;" edge="1" parent="Isc7oL6KGUsIhXfSyb_4-15">
          <mxGeometry width="50" height="50" relative="1" as="geometry">
            <mxPoint y="40" as="sourcePoint" />
            <mxPoint x="120" y="40" as="targetPoint" />
          </mxGeometry>
        </mxCell>
        <mxCell id="Isc7oL6KGUsIhXfSyb_4-16" value="&lt;b&gt;User Data&lt;/b&gt;" style="text;html=1;align=center;verticalAlign=middle;resizable=0;points=[];autosize=1;strokeColor=none;fillColor=none;" vertex="1" parent="Isc7oL6KGUsIhXfSyb_4-15">
          <mxGeometry x="20" y="5" width="80" height="30" as="geometry" />
        </mxCell>
        <mxCell id="Isc7oL6KGUsIhXfSyb_4-21" value="" style="endArrow=classic;html=1;rounded=0;strokeWidth=3;" edge="1" parent="1">
          <mxGeometry width="50" height="50" relative="1" as="geometry">
            <mxPoint x="340" y="325" as="sourcePoint" />
            <mxPoint x="510" y="325" as="targetPoint" />
          </mxGeometry>
        </mxCell>
        <mxCell id="Isc7oL6KGUsIhXfSyb_4-25" value="" style="endArrow=classic;html=1;rounded=0;fontStyle=1;strokeWidth=3;" edge="1" parent="1">
          <mxGeometry width="50" height="50" relative="1" as="geometry">
            <mxPoint x="500" y="365" as="sourcePoint" />
            <mxPoint x="340" y="365" as="targetPoint" />
          </mxGeometry>
        </mxCell>
        <mxCell id="Isc7oL6KGUsIhXfSyb_4-26" value="&lt;b&gt;Check&lt;/b&gt;" style="text;strokeColor=none;align=center;fillColor=none;html=1;verticalAlign=middle;whiteSpace=wrap;rounded=0;" vertex="1" parent="1">
          <mxGeometry x="395" y="330" width="60" height="30" as="geometry" />
        </mxCell>
        <mxCell id="Isc7oL6KGUsIhXfSyb_4-30" value="&lt;font style=&quot;font-size: 14px;&quot;&gt;&lt;b&gt;View&lt;/b&gt;&lt;/font&gt;&lt;div style=&quot;font-size: 14px;&quot;&gt;&lt;font style=&quot;font-size: 14px;&quot;&gt;&lt;b&gt;Enrolled&lt;/b&gt;&lt;/font&gt;&lt;/div&gt;&lt;div style=&quot;font-size: 14px;&quot;&gt;&lt;font style=&quot;font-size: 14px;&quot;&gt;&lt;b&gt;Students&lt;/b&gt;&lt;/font&gt;&lt;/div&gt;" style="ellipse;whiteSpace=wrap;html=1;strokeWidth=3;" vertex="1" parent="1">
          <mxGeometry x="350" y="460" width="150" height="210" as="geometry" />
        </mxCell>
        <mxCell id="Isc7oL6KGUsIhXfSyb_4-31" value="&lt;b&gt;Admin&lt;/b&gt;" style="rounded=1;whiteSpace=wrap;html=1;strokeWidth=3;" vertex="1" parent="1">
          <mxGeometry x="40" y="490" width="110" height="50" as="geometry" />
        </mxCell>
        <mxCell id="Isc7oL6KGUsIhXfSyb_4-32" value="&lt;b&gt;Faculty&lt;/b&gt;" style="rounded=1;whiteSpace=wrap;html=1;strokeWidth=3;" vertex="1" parent="1">
          <mxGeometry x="40" y="590" width="110" height="50" as="geometry" />
        </mxCell>
        <mxCell id="Isc7oL6KGUsIhXfSyb_4-35" value="" style="endArrow=classic;html=1;rounded=0;entryX=1;entryY=0.5;entryDx=0;entryDy=0;exitX=0.08;exitY=0.258;exitDx=0;exitDy=0;exitPerimeter=0;strokeWidth=3;" edge="1" parent="1" source="Isc7oL6KGUsIhXfSyb_4-30" target="Isc7oL6KGUsIhXfSyb_4-31">
          <mxGeometry width="50" height="50" relative="1" as="geometry">
            <mxPoint x="320" y="510" as="sourcePoint" />
            <mxPoint x="270" y="570" as="targetPoint" />
          </mxGeometry>
        </mxCell>
        <mxCell id="Isc7oL6KGUsIhXfSyb_4-36" value="" style="endArrow=classic;html=1;rounded=0;exitX=1;exitY=0.5;exitDx=0;exitDy=0;strokeWidth=3;entryX=0.057;entryY=0.742;entryDx=0;entryDy=0;entryPerimeter=0;" edge="1" parent="1" source="Isc7oL6KGUsIhXfSyb_4-32" target="Isc7oL6KGUsIhXfSyb_4-30">
          <mxGeometry width="50" height="50" relative="1" as="geometry">
            <mxPoint x="220" y="620" as="sourcePoint" />
            <mxPoint x="360" y="610" as="targetPoint" />
          </mxGeometry>
        </mxCell>
        <mxCell id="Isc7oL6KGUsIhXfSyb_4-37" value="&lt;b&gt;Student ID&lt;/b&gt;" style="text;strokeColor=none;align=center;fillColor=none;html=1;verticalAlign=middle;whiteSpace=wrap;rounded=0;" vertex="1" parent="1">
          <mxGeometry x="210" y="480" width="80" height="30" as="geometry" />
        </mxCell>
        <mxCell id="Isc7oL6KGUsIhXfSyb_4-38" value="&lt;b&gt;Course ID&lt;/b&gt;" style="text;strokeColor=none;align=center;fillColor=none;html=1;verticalAlign=middle;whiteSpace=wrap;rounded=0;" vertex="1" parent="1">
          <mxGeometry x="220" y="580" width="60" height="30" as="geometry" />
        </mxCell>
        <mxCell id="Isc7oL6KGUsIhXfSyb_4-39" value="&lt;b&gt;List of Students&lt;br&gt;Enrolled in&lt;br&gt;Particular Course&lt;/b&gt;" style="text;strokeColor=none;align=center;fillColor=none;html=1;verticalAlign=middle;whiteSpace=wrap;rounded=0;" vertex="1" parent="1">
          <mxGeometry x="660" y="525" width="110" height="80" as="geometry" />
        </mxCell>
        <mxCell id="Isc7oL6KGUsIhXfSyb_4-41" value="" style="endArrow=none;html=1;rounded=0;strokeWidth=3;" edge="1" parent="1">
          <mxGeometry width="50" height="50" relative="1" as="geometry">
            <mxPoint x="650" y="514.57" as="sourcePoint" />
            <mxPoint x="780" y="514.57" as="targetPoint" />
          </mxGeometry>
        </mxCell>
        <mxCell id="Isc7oL6KGUsIhXfSyb_4-42" value="" style="endArrow=none;html=1;rounded=0;strokeWidth=3;" edge="1" parent="1">
          <mxGeometry width="50" height="50" relative="1" as="geometry">
            <mxPoint x="650" y="610" as="sourcePoint" />
            <mxPoint x="780" y="610" as="targetPoint" />
          </mxGeometry>
        </mxCell>
        <mxCell id="Isc7oL6KGUsIhXfSyb_4-43" value="" style="endArrow=classic;html=1;rounded=0;strokeWidth=3;" edge="1" parent="1">
          <mxGeometry width="50" height="50" relative="1" as="geometry">
            <mxPoint x="520" y="560" as="sourcePoint" />
            <mxPoint x="630" y="560" as="targetPoint" />
          </mxGeometry>
        </mxCell>
        <mxCell id="Isc7oL6KGUsIhXfSyb_4-44" value="&lt;b&gt;Course ID&lt;/b&gt;" style="text;strokeColor=none;align=center;fillColor=none;html=1;verticalAlign=middle;whiteSpace=wrap;rounded=0;" vertex="1" parent="1">
          <mxGeometry x="540" y="525" width="60" height="30" as="geometry" />
        </mxCell>
        <mxCell id="Isc7oL6KGUsIhXfSyb_4-45" value="" style="endArrow=classic;html=1;rounded=0;strokeWidth=3;entryX=0.5;entryY=1;entryDx=0;entryDy=0;" edge="1" parent="1" target="Isc7oL6KGUsIhXfSyb_4-30">
          <mxGeometry width="50" height="50" relative="1" as="geometry">
            <mxPoint x="710" y="610" as="sourcePoint" />
            <mxPoint x="520" y="670" as="targetPoint" />
            <Array as="points">
              <mxPoint x="710" y="720" />
              <mxPoint x="425" y="720" />
            </Array>
          </mxGeometry>
        </mxCell>
        <mxCell id="Isc7oL6KGUsIhXfSyb_4-46" value="&lt;b&gt;Student List&lt;/b&gt;" style="text;strokeColor=none;align=center;fillColor=none;html=1;verticalAlign=middle;whiteSpace=wrap;rounded=0;" vertex="1" parent="1">
          <mxGeometry x="525" y="690" width="90" height="30" as="geometry" />
        </mxCell>
        <mxCell id="Isc7oL6KGUsIhXfSyb_4-47" value="&lt;b&gt;Update of Attendance&lt;/b&gt;" style="ellipse;whiteSpace=wrap;html=1;strokeWidth=3;" vertex="1" parent="1">
          <mxGeometry x="370" y="780" width="110" height="70" as="geometry" />
        </mxCell>
        <mxCell id="Isc7oL6KGUsIhXfSyb_4-48" value="" style="endArrow=classic;html=1;rounded=0;strokeWidth=3;entryX=1;entryY=0.5;entryDx=0;entryDy=0;" edge="1" parent="1" target="Isc7oL6KGUsIhXfSyb_4-47">
          <mxGeometry width="50" height="50" relative="1" as="geometry">
            <mxPoint x="710" y="720" as="sourcePoint" />
            <mxPoint x="830" y="710" as="targetPoint" />
            <Array as="points">
              <mxPoint x="710" y="815" />
            </Array>
          </mxGeometry>
        </mxCell>
        <mxCell id="Isc7oL6KGUsIhXfSyb_4-49" value="&lt;b&gt;Update of Attendance&lt;/b&gt;" style="ellipse;whiteSpace=wrap;html=1;strokeWidth=3;" vertex="1" parent="1">
          <mxGeometry x="370" y="920" width="110" height="70" as="geometry" />
        </mxCell>
        <mxCell id="Isc7oL6KGUsIhXfSyb_4-50" value="" style="endArrow=classic;html=1;rounded=0;strokeWidth=3;entryX=1;entryY=0.5;entryDx=0;entryDy=0;" edge="1" parent="1" target="Isc7oL6KGUsIhXfSyb_4-49">
          <mxGeometry width="50" height="50" relative="1" as="geometry">
            <mxPoint x="710" y="810" as="sourcePoint" />
            <mxPoint x="480" y="905" as="targetPoint" />
            <Array as="points">
              <mxPoint x="710" y="950" />
            </Array>
          </mxGeometry>
        </mxCell>
        <mxCell id="Isc7oL6KGUsIhXfSyb_4-51" value="" style="endArrow=none;html=1;rounded=0;strokeWidth=3;" edge="1" parent="1">
          <mxGeometry width="50" height="50" relative="1" as="geometry">
            <mxPoint x="70" y="850" as="sourcePoint" />
            <mxPoint x="200" y="850" as="targetPoint" />
          </mxGeometry>
        </mxCell>
        <mxCell id="Isc7oL6KGUsIhXfSyb_4-52" value="" style="endArrow=none;html=1;rounded=0;strokeWidth=3;" edge="1" parent="1">
          <mxGeometry width="50" height="50" relative="1" as="geometry">
            <mxPoint x="70" y="905" as="sourcePoint" />
            <mxPoint x="200" y="905" as="targetPoint" />
          </mxGeometry>
        </mxCell>
        <mxCell id="Isc7oL6KGUsIhXfSyb_4-53" value="&lt;b&gt;Attendance&lt;br&gt;Table&lt;/b&gt;" style="text;strokeColor=none;align=center;fillColor=none;html=1;verticalAlign=middle;whiteSpace=wrap;rounded=0;" vertex="1" parent="1">
          <mxGeometry x="80" y="850" width="110" height="55" as="geometry" />
        </mxCell>
        <mxCell id="Isc7oL6KGUsIhXfSyb_4-54" value="" style="endArrow=classic;html=1;rounded=0;strokeWidth=3;exitX=-0.019;exitY=0.455;exitDx=0;exitDy=0;exitPerimeter=0;entryX=0.451;entryY=-0.029;entryDx=0;entryDy=0;entryPerimeter=0;" edge="1" parent="1" source="Isc7oL6KGUsIhXfSyb_4-47" target="Isc7oL6KGUsIhXfSyb_4-53">
          <mxGeometry width="50" height="50" relative="1" as="geometry">
            <mxPoint x="170" y="690" as="sourcePoint" />
            <mxPoint x="130" y="840" as="targetPoint" />
            <Array as="points">
              <mxPoint x="130" y="810" />
            </Array>
          </mxGeometry>
        </mxCell>
        <mxCell id="Isc7oL6KGUsIhXfSyb_4-55" value="" style="endArrow=classic;html=1;rounded=0;strokeWidth=3;exitX=-0.019;exitY=0.455;exitDx=0;exitDy=0;exitPerimeter=0;entryX=0.44;entryY=1.026;entryDx=0;entryDy=0;entryPerimeter=0;" edge="1" parent="1" target="Isc7oL6KGUsIhXfSyb_4-53">
          <mxGeometry width="50" height="50" relative="1" as="geometry">
            <mxPoint x="369" y="957" as="sourcePoint" />
            <mxPoint x="140" y="930" as="targetPoint" />
            <Array as="points">
              <mxPoint x="128" y="955" />
            </Array>
          </mxGeometry>
        </mxCell>
        <mxCell id="Isc7oL6KGUsIhXfSyb_4-57" value="&lt;b&gt;Stored Attendance Data&lt;/b&gt;" style="text;strokeColor=none;align=center;fillColor=none;html=1;verticalAlign=middle;whiteSpace=wrap;rounded=0;" vertex="1" parent="1">
          <mxGeometry x="180" y="780" width="140" height="30" as="geometry" />
        </mxCell>
        <mxCell id="Isc7oL6KGUsIhXfSyb_4-58" value="&lt;b&gt;Stored Attendance&lt;/b&gt;" style="text;strokeColor=none;align=center;fillColor=none;html=1;verticalAlign=middle;whiteSpace=wrap;rounded=0;" vertex="1" parent="1">
          <mxGeometry x="180" y="960" width="140" height="30" as="geometry" />
        </mxCell>
        <mxCell id="Isc7oL6KGUsIhXfSyb_4-59" value="&lt;b&gt;fig. DFD Level 1&lt;/b&gt;" style="text;strokeColor=none;align=center;fillColor=none;html=1;verticalAlign=middle;whiteSpace=wrap;rounded=0;" vertex="1" parent="1">
          <mxGeometry x="360" y="1030" width="130" height="30" as="geometry" />
        </mxCell>
      </root>
    </mxGraphModel>
  </diagram>
</mxfile>
